# xmcd
#
# Track frame offsets:
#	150
#	14930
#	26722
#	47565
#	59267
#	73030
#	83100
#	93107
#	105780
#	115600
#	128187
#	138527
#	152637
#	164595
#	176830
#	187405
#	197952
#	209155
#	223012
#	238587
#
# Disc length: 3292
#
# Revision: 2
# Processed by: cddbd v1.5.1PL0 Copyright (c) Steve Scherf et al.
# Submitted via: EasyCDDAExtractor 5.1.0
# Normalized: r1:DSETVAR1
#
DISCID=2d0cda14
DTITLE=Various Artist - Jean-Claude Pascal
DYEAR=1960
DGENRE=Cabaret
TTITLE0=Ma Jeunesse Fout Le Camp
TTITLE1=Jean-Claude Pascal - C'est Joli La Mer
TTITLE2=Les Feuilles Mortes
TTITLE3=L'amour C'est Comme Un Jour
TTITLE4=Le Plat Pays
TTITLE5=La Neige Sur Paris
TTITLE6=Moon River
TTITLE7=Paganini
TTITLE8=C'est Loin
TTITLE9=Dans Les Journeaux
TTITLE10=Le Temple De L'amour
TTITLE11=Adieu La Fête, Adieu La Nuit
TTITLE12=J'ai Compris Trop Tard
TTITLE13=Elle Était Si Jolie
TTITLE14=Quand Je Me Souviens
TTITLE15=C'est La Fin De L'été
TTITLE16=Va Dire À L'amour
TTITLE17=Soirées De Prince
TTITLE18=Je Vous Écris
TTITLE19=Tes Yeux De Chat Pour Voir La Nuit
EXTD=
EXTT0=
EXTT1=
EXTT2=
EXTT3=
EXTT4=
EXTT5=
EXTT6=
EXTT7=
EXTT8=
EXTT9=
EXTT10=
EXTT11=
EXTT12=
EXTT13=
EXTT14=
EXTT15=
EXTT16=
EXTT17=
EXTT18=
EXTT19=
PLAYORDER=
